<svg data-v-423bf9ae="" xmlns="http://www.w3.org/2000/svg" viewBox="0 0 220.5832628992973 60" class="font"><!----><!----><!----><g data-v-423bf9ae="" id="7e2d3866-dadd-496d-b11c-739623660868" fill="white" transform="matrix(5.644402573287807,0,0,5.644402573287807,-6.942616454354152,-8.466604336768867)"><path d="M2.28 12.07L1.23 12.07L1.23 1.93L1.45 1.93L8.19 9.69L8.19 1.93L9.19 1.93L9.19 12.07L8.96 12.07L2.28 4.41L2.28 12.07ZM15.03 4.22L15.03 4.22L15.03 4.22Q16.76 4.22 17.90 5.47L17.90 5.47L17.90 5.47Q18.96 6.61 18.96 8.18L18.96 8.18L18.96 8.18Q18.97 12.07 18.96 12.13L18.96 12.13L18.96 12.13Q18.30 12.13 17.94 12.13L17.94 12.13L17.94 12.13Q17.94 12.08 17.94 10.42L17.94 10.42L17.94 10.42Q17.14 11.92 15.03 12.09L15.03 12.09L15.03 12.09Q13.31 12.09 12.22 10.92L12.22 10.92L12.22 10.92Q11.13 9.75 11.13 8.18L11.13 8.18L11.13 8.18Q11.13 6.62 12.16 5.48L12.16 5.48L12.16 5.48Q13.30 4.22 15.03 4.22ZM15.03 5.16L15.03 5.16L15.03 5.16Q13.84 5.16 12.97 6.05L12.97 6.05L12.97 6.05Q12.11 6.94 12.11 8.20L12.11 8.20L12.11 8.20Q12.11 9.01 12.55 9.76L12.55 9.76L12.55 9.76Q13.00 10.51 14.05 11.03L14.05 11.03L14.05 11.03Q16.69 11.62 17.80 8.63L17.80 8.63L17.80 8.63Q17.86 7.68 17.60 6.80L17.60 6.80L17.60 6.80Q17.40 6.41 17.07 6.05L17.07 6.05L17.07 6.05Q16.23 5.16 15.03 5.16ZM24.60 5.23L24.60 5.23L23.98 5.87L23.98 5.87Q23.20 5.12 22.47 5.12L22.47 5.12L22.47 5.12Q22.00 5.12 21.66 5.43L21.66 5.43L21.66 5.43Q21.33 5.74 21.33 6.16L21.33 6.16L21.33 6.16Q21.33 6.51 21.61 6.84L21.61 6.84L21.61 6.84Q21.88 7.19 22.76 7.64L22.76 7.64L22.76 7.64Q23.84 8.20 24.23 8.72L24.23 8.72L24.23 8.72Q24.60 9.24 24.60 9.90L24.60 9.90L24.60 9.90Q24.60 10.81 23.96 11.45L23.96 11.45L23.96 11.45Q23.31 12.09 22.34 12.09L22.34 12.09L22.34 12.09Q21.69 12.09 21.10 11.82L21.10 11.82L21.10 11.82Q20.51 11.54 20.13 11.04L20.13 11.04L20.73 10.35L20.73 10.35Q21.47 11.18 22.30 11.18L22.30 11.18L22.30 11.18Q22.87 11.18 23.28 10.81L23.28 10.81L23.28 10.81Q23.69 10.44 23.69 9.94L23.69 9.94L23.69 9.94Q23.69 9.52 23.42 9.20L23.42 9.20L23.42 9.20Q23.15 8.88 22.21 8.39L22.21 8.39L22.21 8.39Q21.19 7.88 20.83 7.36L20.83 7.36L20.83 7.36Q20.46 6.86 20.46 6.20L20.46 6.20L20.46 6.20Q20.46 5.35 21.04 4.78L21.04 4.78L21.04 4.78Q21.63 4.22 22.51 4.22L22.51 4.22L22.51 4.22Q23.54 4.22 24.60 5.23ZM26.63 1.50L26.63 1.50L26.63 1.50Q26.96 1.50 27.20 1.74L27.20 1.74L27.20 1.74Q27.43 1.97 27.43 2.30L27.43 2.30L27.43 2.30Q27.43 2.63 27.20 2.86L27.20 2.86L27.20 2.86Q26.96 3.10 26.63 3.10L26.63 3.10L26.63 3.10Q26.30 3.10 26.07 2.86L26.07 2.86L26.07 2.86Q25.84 2.63 25.84 2.30L25.84 2.30L25.84 2.30Q25.84 1.97 26.07 1.74L26.07 1.74L26.07 1.74Q26.30 1.50 26.63 1.50ZM26.15 12.09L26.15 4.59L27.12 4.59L27.12 12.09L26.15 12.09ZM29.10 12.09L29.10 9.18L29.10 7.98L29.10 7.98Q29.22 6.45 29.74 5.74L29.74 5.74L29.74 5.74Q30.17 5.09 30.87 4.71L30.87 4.71L30.87 4.71Q31.33 4.42 32.18 4.40L32.18 4.40L32.18 4.40Q32.72 4.40 33.28 4.60L33.28 4.60L33.28 4.60Q33.84 4.81 34.15 5.15L34.15 5.15L34.15 5.15Q34.46 5.49 34.77 6.17L34.77 6.17L34.77 6.17Q34.95 5.74 35.49 5.15L35.49 5.15L35.49 5.15Q35.76 4.92 36.18 4.70L36.18 4.70L36.18 4.70Q36.47 4.52 37.52 4.40L37.52 4.40L37.52 4.40Q38.29 4.40 39.01 4.79L39.01 4.79L39.01 4.79Q39.73 5.17 40.02 5.88L40.02 5.88L40.02 5.88Q40.31 6.59 40.31 7.99L40.31 7.99L40.31 12.09L39.33 12.09L39.33 7.99L39.33 7.99Q39.33 6.79 39.16 6.34L39.16 6.34L39.16 6.34Q38.99 5.89 38.57 5.61L38.57 5.61L38.57 5.61Q38.15 5.33 37.56 5.33L37.56 5.33L37.56 5.33Q36.46 5.41 35.67 6.41L35.67 6.41L35.67 6.41Q35.36 6.83 35.21 8.29L35.21 8.29L35.21 12.09L34.24 12.09L34.24 8.24L34.24 8.24Q34.24 6.89 33.94 6.40L33.94 6.40L33.94 6.40Q33.64 5.91 33.22 5.62L33.22 5.62L33.22 5.62Q32.81 5.33 32.18 5.33L32.18 5.33L32.18 5.33Q31.51 5.33 31.03 5.67L31.03 5.67L31.03 5.67Q30.55 6.02 30.28 6.70L30.28 6.70L30.28 6.70Q30.00 7.38 30.06 8.91L30.06 8.91L30.06 12.09L29.10 12.09Z"></path></g><!----><!----></svg>